<svg xmlns="http://www.w3.org/2000/svg" xmlns:xlink="http://www.w3.org/1999/xlink" width="418" viewBox="0 0 418 371" height="371">
    <defs/>
    <g transform="translate(-131.00,-80.00)">
        <path fill-rule="nonzero" stroke-dasharray="11,5" transform="translate(132.00,114.50)" stroke="#323232" d="M189.0,324.0L189.0,11.0C189.0,4.9,184.1,.0,178.0,.0L11.0,.0C4.9,.0,.0,4.9,.0,11.0L.0,324.0C.0,330.1,4.9,335.0,11.0,335.0L178.0,335.0C184.1,335.0,189.0,330.1,189.0,324.0z" stroke-width="2" fill="#ffffff" id="shape1"/>
        <path fill-rule="nonzero" stroke-dasharray="11,5" transform="translate(359.50,114.50)" stroke="#323232" d="M189.0,324.0L189.0,11.0C189.0,4.9,184.1,.0,178.0,.0L11.0,.0C4.9,.0,.0,4.9,.0,11.0L.0,324.0C.0,330.1,4.9,335.0,11.0,335.0L178.0,335.0C184.1,335.0,189.0,330.1,189.0,324.0z" stroke-width="2" fill="#ffffff" id="shape2"/>
        <g transform="translate(151.00,128.50)" id="shape3">
            <path fill-rule="nonzero" stroke="#b4f5fe" d="M151.0,75.0L151.0,.0L.0,.0L.0,75.0L151.0,75.0z" fill="#b4f5fe"/>
            <text xml:space="preserve" style="fill:#000000;font-family:微软雅黑;font-size:12.00pt;font-weight:bold">
                <tspan y="42.7" x="51.3">客户端</tspan>
            </text>
        </g>
        <g transform="translate(378.50,128.50)" id="shape4">
            <path fill-rule="nonzero" stroke="#ffc9c9" d="M151.0,75.0L151.0,.0L.0,.0L.0,75.0L151.0,75.0z" fill="#ffc9c9"/>
            <text xml:space="preserve" style="fill:#000000;font-family:Microsoft YaHei;font-size:12.00pt;font-weight:bold">
                <tspan y="42.7" x="51.3">服务端</tspan>
            </text>
        </g>
        <g transform="translate(151.00,241.50)" id="shape5">
            <path fill-rule="nonzero" stroke="#ceeab0" d="M151.0,75.0L151.0,.0L.0,.0L.0,75.0L151.0,75.0z" fill="#ceeab0"/>
            <text xml:space="preserve" style="fill:#000000;font-family:Microsoft YaHei;font-size:12.00pt;font-weight:bold">
                <tspan y="42.7" x="43.2">客户端桩</tspan>
            </text>
        </g>
        <g transform="translate(151.00,354.50)" id="shape6">
            <path fill-rule="nonzero" stroke="#ffffcd" d="M151.0,75.0L151.0,.0L.0,.0L.0,75.0L151.0,75.0z" fill="#ffffcd"/>
            <text xml:space="preserve" style="fill:#000000;font-family:Microsoft YaHei;font-size:12.00pt;font-weight:bold">
                <tspan y="42.7" x="16.2">Socket网络通信</tspan>
            </text>
        </g>
        <g transform="translate(378.50,241.50)" id="shape7">
            <path fill-rule="nonzero" stroke="#c6c6ec" d="M151.0,75.0L151.0,.0L.0,.0L.0,75.0L151.0,75.0z" fill="#c6c6ec"/>
            <text xml:space="preserve" style="fill:#000000;font-family:Microsoft YaHei;font-size:12.00pt;font-weight:bold">
                <tspan y="42.7" x="43.2">服务端桩</tspan>
            </text>
        </g>
        <g transform="translate(378.50,354.50)" id="shape8">
            <path fill-rule="nonzero" stroke="#ffffcd" d="M151.0,75.0L151.0,.0L.0,.0L.0,75.0L151.0,75.0z" fill="#ffffcd"/>
            <text xml:space="preserve" style="fill:#000000;font-family:Microsoft YaHei;font-size:12.00pt;font-weight:bold">
                <tspan y="42.7" x="16.2">Socket网络通信</tspan>
            </text>
        </g>
        <g transform="translate(226.50,203.50)" id="shape9">
            <path stroke="#7e7e7e" d="M.0,.0L.0,29.2" stroke-width="4" fill="none"/>
            <path stroke-linecap="round" stroke="#7e7e7e" d="M.0,38.0L6.0,27.6C4.2,28.6,2.2,29.2,.0,29.2C-2.2,29.2,-4.2,28.6,-6.0,27.6L.0,38.0" stroke-width="1" fill="#7e7e7e"/>
        </g>
        <g transform="translate(226.50,316.50)" id="shape10">
            <path stroke="#7e7e7e" d="M.0,.0L.0,29.2" stroke-width="4" fill="none"/>
            <path stroke-linecap="round" stroke="#7e7e7e" d="M.0,38.0L6.0,27.6C4.2,28.6,2.2,29.2,.0,29.2C-2.2,29.2,-4.2,28.6,-6.0,27.6L.0,38.0" stroke-width="1" fill="#7e7e7e"/>
        </g>
        <g transform="translate(454.00,203.50)" id="shape11">
            <path stroke="#7e7e7e" d="M.0,.0L.0,29.2" stroke-width="4" fill="none"/>
            <path stroke-linecap="round" stroke="#7e7e7e" d="M.0,38.0L6.0,27.6C4.2,28.6,2.2,29.2,.0,29.2C-2.2,29.2,-4.2,28.6,-6.0,27.6L.0,38.0" stroke-width="1" fill="#7e7e7e"/>
        </g>
        <g transform="translate(454.00,316.50)" id="shape12">
            <path stroke="#7e7e7e" d="M.0,.0L.0,29.2" stroke-width="4" fill="none"/>
            <path stroke-linecap="round" stroke="#7e7e7e" d="M.0,38.0L6.0,27.6C4.2,28.6,2.2,29.2,.0,29.2C-2.2,29.2,-4.2,28.6,-6.0,27.6L.0,38.0" stroke-width="1" fill="#7e7e7e"/>
        </g>
        <g transform="translate(302.00,374.15)" id="shape13">
            <path stroke="#7e7e7e" d="M.0,.0L67.7,.0" stroke-width="4" fill="none"/>
            <path stroke-linecap="round" stroke="#7e7e7e" d="M76.5,.0L66.1,-6.0C67.1,-4.2,67.7,-2.2,67.7,.0C67.7,2.2,67.1,4.2,66.1,6.0L76.5,.0" stroke-width="1" fill="#7e7e7e"/>
        </g>
        <g transform="translate(378.50,412.10)" id="shape14">
            <path stroke="#7e7e7e" d="M.0,.0L-67.7,.0" stroke-width="4" fill="none"/>
            <path stroke-linecap="round" stroke="#7e7e7e" d="M-76.5,.0L-66.1,6.0C-67.1,4.2,-67.7,2.2,-67.7,.0C-67.7,-2.2,-67.1,-4.2,-66.1,-6.0L-76.5,.0" stroke-width="1" fill="#7e7e7e"/>
        </g>
        <g transform="translate(170.00,81.00)" id="shape15">
            <text xml:space="preserve" style="fill:#0070c0;font-family:微软雅黑;font-size:16.00pt;font-weight:bold">
                <tspan y="25.5" x="25.4" style="text-decoration:underline">Client</tspan>
            </text>
        </g>
        <g transform="translate(397.50,81.00)" id="shape16">
            <text xml:space="preserve" style="fill:#fd8851;font-family:微软雅黑;font-size:16.00pt;font-weight:bold">
                <tspan y="25.5" x="23.0" style="text-decoration:underline">Server</tspan>
            </text>
        </g>
    </g>
</svg>
