<svg height="100" xmlns="http://www.w3.org/2000/svg" viewBox="0 0 430 100" width="430" xmlns:xlink="http://www.w3.org/1999/xlink">
    <defs/>
    <g transform="translate(-127.00,-229.45)">
        <path fill-rule="evenodd" transform="translate(209.86,254.17)" id="shape1" stroke="#f59d56" stroke-dasharray="11,5" fill="#ffffff" stroke-width="1" d="M7.3,65.2L65.7,65.2L65.7,65.2L65.7,65.2C65.7,65.2,65.7,65.2,65.7,65.2C69.7,65.2,72.9,61.9,72.9,57.9C72.9,57.9,72.9,57.9,72.9,57.9L72.9,7.3L72.9,7.3C72.9,7.3,72.9,7.3,72.9,7.3C72.9,3.3,69.7,-0.0,65.7,-0.0C65.7,-0.0,65.7,-0.0,65.7,-0.0L65.7,.0L7.3,.0L7.3,.0L7.3,-0.0C7.3,-0.0,7.3,-0.0,7.3,-0.0C3.3,-0.0,-0.0,3.3,-0.0,7.3C-0.0,7.3,-0.0,7.3,.0,7.3L.0,57.9L-0.0,57.9C-0.0,57.9,-0.0,57.9,-0.0,57.9C-0.0,61.9,3.3,65.2,7.3,65.2C7.3,65.2,7.3,65.2,7.3,65.2L7.3,65.2z"/>
        <g transform="translate(219.31,263.15)" id="shape2">
            <path fill-rule="evenodd" stroke="#bfbfbf" fill="#ffffcc" stroke-width="1" d="M3.0,19.8L51.8,19.8C53.5,19.8,54.8,18.5,54.8,16.8L54.8,3.0C54.8,1.3,53.5,.0,51.8,.0L3.0,.0C1.3,.0,.0,1.3,.0,3.0L.0,16.8C.0,18.5,1.3,19.8,3.0,19.8z"/>
            <text xml:space="preserve" style="fill:#000000;font-family:Times New Roman;font-size:8.00pt">
                <tspan y="11.9" x="16.9">CNN</tspan>
            </text>
        </g>
        <g transform="translate(211.65,291.02)" id="shape3">
            <path fill-rule="evenodd" stroke="#bfbfbf" fill="#ccccff" stroke-width="1" d="M3.0,19.8L66.0,19.8C67.7,19.8,69.0,18.5,69.0,16.8L69.0,3.0C69.0,1.3,67.7,.0,66.0,.0L3.0,.0C1.3,.0,.0,1.3,.0,3.0L.0,16.8C.0,18.5,1.3,19.8,3.0,19.8z"/>
            <text xml:space="preserve" style="fill:#000000;font-family:Times New Roman;font-size:8.00pt">
                <tspan y="11.9" x="8.3">Transformer</tspan>
            </text>
        </g>
        <g transform="translate(129.40,263.15)" id="shape4">
            <text xml:space="preserve" style="font-family:Times New Roman;font-size:10.00pt">
                <tspan y="18.1" x="27.2" style="fill:#000000">I</tspan>
                <tspan textLength="10.5" y="20.7" x="31.3" style="fill:#000000;font-size:6.50pt">LR</tspan>
            </text>
        </g>
        <g transform="translate(485.17,262.68)" id="shape5">
            <text xml:space="preserve" style="font-family:Times New Roman;font-size:10.00pt">
                <tspan y="18.1" x="26.8" style="fill:#000000">I</tspan>
                <tspan textLength="11.3" y="20.7" x="30.9" style="fill:#000000;font-size:6.50pt">HR</tspan>
            </text>
        </g>
        <g transform="translate(155.29,286.77)" id="shape6">
            <path stroke="#3f3f3f" fill="none" d="M.0,.0L50.6,.0"/>
            <path stroke-linecap="round" stroke="#3f3f3f" stroke-width="1" fill="#3f3f3f" d="M50.6,-2.0L54.6,.0L50.6,2.0L50.6,-2.0"/>
        </g>
        <g transform="matrix(1.00,0.00,-0.00,1.00,282.8,286.8)" id="shape7">
            <path stroke="#3f3f3f" fill="none" d="M.0,.0L10.3,.0"/>
            <path stroke-linecap="round" stroke="#3f3f3f" stroke-width="1" fill="#3f3f3f" d="M10.3,-2.0L14.3,.0L10.3,2.0L10.3,-2.0"/>
        </g>
        <g transform="translate(188.98,230.45)" id="shape8">
            <text xml:space="preserve" style="font-family:Times New Roman;font-size:10.00pt">
                <tspan y="18.1" x="22.9" style="fill:#f59d56">Feature Extractor</tspan>
            </text>
        </g>
        <g transform="translate(297.14,262.68)" id="group9">
            <path fill-rule="evenodd" id="shape10" stroke="#000000" fill="#ccecff" stroke-width="1" d="M8.6,48.2L77.4,48.2L77.4,48.2L77.4,48.2C77.4,48.2,77.4,48.2,77.4,48.2C82.2,48.2,86.0,44.3,86.0,39.6C86.0,39.6,86.0,39.6,86.0,39.6L86.0,8.6L86.0,8.6C86.0,8.6,86.0,8.6,86.0,8.6C86.0,3.9,82.2,-0.0,77.4,-0.0C77.4,-0.0,77.4,-0.0,77.4,-0.0L77.4,.0L8.6,.0L8.6,.0L8.6,-0.0C8.6,-0.0,8.6,-0.0,8.6,-0.0C3.9,-0.0,-0.0,3.9,-0.0,8.6C-0.0,8.6,-0.0,8.6,.0,8.6L.0,39.6L.0,39.6C-0.0,39.6,-0.0,39.6,-0.0,39.6C-0.0,44.3,3.9,48.2,8.6,48.2C8.6,48.2,8.6,48.2,8.6,48.2L8.6,48.2z"/>
            <g transform="translate(0.00,10.76)" id="shape11">
                <text xml:space="preserve" style="font-family:Times New Roman;font-size:10.00pt">
                    <tspan y="10.7" x="22.4" style="fill:#000000">Texture </tspan>
                    <tspan y="25.6" x="18.4" style="fill:#000000">Migrator</tspan>
                </text>
            </g>
        </g>
        <g transform="translate(399.73,262.68)" id="group12">
            <path fill-rule="evenodd" id="shape13" stroke="#000000" fill="#ebf1df" stroke-width="1" d="M8.6,48.2L77.4,48.2L77.4,48.2L77.4,48.2C77.4,48.2,77.4,48.2,77.4,48.2C82.2,48.2,86.0,44.3,86.0,39.6C86.0,39.6,86.0,39.6,86.0,39.6L86.0,8.6L86.0,8.6C86.0,8.6,86.0,8.6,86.0,8.6C86.0,3.9,82.2,-0.0,77.4,-0.0C77.4,-0.0,77.4,-0.0,77.4,.0L77.4,.0L8.6,.0L8.6,.0L8.6,-0.0C8.6,-0.0,8.6,-0.0,8.6,-0.0C3.9,-0.0,-0.0,3.9,-0.0,8.6C-0.0,8.6,-0.0,8.6,.0,8.6L.0,39.6L.0,39.6C-0.0,39.6,-0.0,39.6,-0.0,39.6C-0.0,44.3,3.9,48.2,8.6,48.2C8.6,48.2,8.6,48.2,8.6,48.2L8.6,48.2z"/>
            <g transform="translate(0.00,10.25)" id="shape14">
                <text xml:space="preserve" style="font-family:Times New Roman;font-size:10.00pt">
                    <tspan y="10.7" x="22.4" style="fill:#000000">Texture </tspan>
                    <tspan y="25.6" x="9.5" style="fill:#000000">Synthesizer </tspan>
                </text>
            </g>
        </g>
        <g transform="matrix(1.00,0.00,-0.00,1.00,383.2,286.8)" id="shape15">
            <path stroke="#3f3f3f" fill="none" d="M.0,.0L12.6,.0"/>
            <path stroke-linecap="round" stroke="#3f3f3f" stroke-width="1" fill="#3f3f3f" d="M12.6,-2.0L16.6,.0L12.6,2.0L12.6,-2.0"/>
        </g>
        <g transform="translate(485.77,286.77)" id="shape16">
            <path stroke="#3f3f3f" fill="none" d="M.0,.0L36.1,.0"/>
            <path stroke-linecap="round" stroke="#3f3f3f" stroke-width="1" fill="#3f3f3f" d="M36.1,-2.0L40.1,.0L36.1,2.0L36.1,-2.0"/>
        </g>
        <path transform="translate(197.08,234.33)" id="shape17" stroke="#4bacc6" stroke-dasharray="6,4" fill="none" d="M19.4,94.5L174.8,94.5L174.8,94.5L174.8,94.5C174.8,94.5,174.8,94.5,174.8,94.5C185.6,94.5,194.3,85.8,194.3,75.1C194.3,75.1,194.3,75.1,194.3,75.1L194.3,19.4L194.3,19.4C194.3,19.4,194.3,19.4,194.3,19.4C194.3,8.7,185.6,-0.0,174.8,-0.0C174.8,-0.0,174.8,-0.0,174.8,-0.0L174.8,.0L19.4,.0L19.4,.0L19.4,-0.0C19.4,-0.0,19.4,-0.0,19.4,-0.0C8.7,-0.0,-0.0,8.7,-0.0,19.4C-0.0,19.4,-0.0,19.4,.0,19.4L.0,75.1L.0,75.1C-0.0,75.1,-0.0,75.1,-0.0,75.1C-0.0,85.8,8.7,94.5,19.4,94.5C19.4,94.5,19.4,94.5,19.4,94.5L19.4,94.5z"/>
    </g>
</svg>
